<?xml version="1.0" encoding="utf-8"?>
<!-- Generator: Adobe Illustrator 26.3.1, SVG Export Plug-In . SVG Version: 6.00 Build 0)  -->
<svg version="1.1" id="Layer_1" xmlns="http://www.w3.org/2000/svg" xmlns:xlink="http://www.w3.org/1999/xlink" x="0px" y="0px"
	 viewBox="0 0 22 22" style="enable-background:new 0 0 22 22;" xml:space="preserve">
<style type="text/css">
	.st0{fill:#FFFFFF;}
</style>
<g id="Layer_2_00000132089627524214483170000001522786832278384825_">
	<g id="icons_Q2">
		<g>
			<path class="st0" d="M9.3,17.2l-4-4c-0.4-0.4-0.4-0.9-0.1-1.4c0.3-0.4,0.9-0.6,1.3-0.3c0.1,0,0.1,0.1,0.2,0.2l3.3,3.3L20.4,4.7
				c0.4-0.3,1.1-0.2,1.4,0.2c0.3,0.4,0.3,0.8,0,1.2l-11,11C10.4,17.6,9.8,17.6,9.3,17.2C9.4,17.2,9.4,17.2,9.3,17.2z"/>
			<path class="st0" d="M5,17.5c-0.3,0-0.5-0.1-0.7-0.3l-4-4c-0.4-0.4-0.4-1-0.1-1.3c0,0,0,0,0.1-0.1c0.4-0.4,1-0.4,1.3-0.1
				c0,0,0,0,0.1,0.1l4,4c0.4,0.4,0.4,1,0.1,1.3c0,0,0,0-0.1,0.1C5.5,17.4,5.3,17.5,5,17.5z"/>
			<path class="st0" d="M10,12.5c-0.3,0-0.5-0.1-0.7-0.3c-0.4-0.4-0.4-1-0.1-1.3c0,0,0,0,0.1-0.1l6-6c0.4-0.3,1.1-0.2,1.4,0.2
				c0.3,0.4,0.3,0.8,0,1.2l-6,6C10.6,12.3,10.3,12.4,10,12.5z"/>
		</g>
	</g>
</g>
</svg>
