<?xml version="1.0" encoding="utf-8"?>
<!-- Generator: Adobe Illustrator 26.3.1, SVG Export Plug-In . SVG Version: 6.00 Build 0)  -->
<svg version="1.1" id="Layer_1" xmlns="http://www.w3.org/2000/svg" xmlns:xlink="http://www.w3.org/1999/xlink" x="0px" y="0px"
	 viewBox="0 0 22 22" style="enable-background:new 0 0 22 22;" xml:space="preserve">
<style type="text/css">
	.st0{fill:#E31B23;}
</style>
<path class="st0" d="M19,2H3C1.35,2,0,3.35,0,5v12c0,1.65,1.35,3,3,3h16c1.65,0,3-1.35,3-3V5C22,3.35,20.65,2,19,2z M3,4h16
	c0.39,0,0.72,0.23,0.89,0.56L11,10.78L2.11,4.56C2.28,4.23,2.61,4,3,4z M19,18H3c-0.55,0-1-0.45-1-1V6.92l9,6.3l9-6.3V17
	C20,17.55,19.55,18,19,18z"/>
</svg>
