<?xml version="1.0" encoding="utf-8"?>
<!-- Generator: Adobe Illustrator 26.3.1, SVG Export Plug-In . SVG Version: 6.00 Build 0)  -->
<svg version="1.1" id="Layer_1" xmlns="http://www.w3.org/2000/svg" xmlns:xlink="http://www.w3.org/1999/xlink" x="0px" y="0px"
	 viewBox="0 0 22 22" style="enable-background:new 0 0 22 22;" xml:space="preserve">
<style type="text/css">
	.st0{fill:#E31B23;}
</style>
<path class="st0" d="M11,0C4.93,0,0,5.05,0,11.28c0,4.98,3.15,9.21,7.52,10.7c0.55,0.1,0.73-0.25,0.73-0.54v-2.1
	c-3.06,0.68-3.7-1.33-3.7-1.33c-0.5-1.3-1.22-1.65-1.22-1.65c-1-0.7,0.08-0.69,0.08-0.69c1.1,0.08,1.69,1.16,1.69,1.16
	c0.98,1.72,2.57,1.23,3.2,0.94c0.1-0.73,0.38-1.23,0.7-1.51c-2.44-0.29-5.01-1.25-5.01-5.57c0-1.23,0.43-2.24,1.13-3.03
	C5,7.38,4.62,6.23,5.22,4.68c0,0,0.92-0.3,3.03,1.16C9.12,5.58,10.06,5.46,11,5.45c0.93,0,1.88,0.13,2.76,0.38
	c2.1-1.46,3.02-1.16,3.02-1.16c0.6,1.55,0.22,2.7,0.11,2.98c0.71,0.79,1.13,1.8,1.13,3.03c0,4.33-2.57,5.29-5.02,5.56
	c0.39,0.35,0.75,1.04,0.75,2.09v3.09c0,0.3,0.18,0.65,0.73,0.54c4.37-1.49,7.52-5.72,7.52-10.7C22,5.05,17.07,0,11,0z"/>
</svg>
