<?xml version="1.0" encoding="utf-8"?>
<!-- Generator: Adobe Illustrator 26.3.1, SVG Export Plug-In . SVG Version: 6.00 Build 0)  -->
<svg version="1.1" id="Layer_1" xmlns="http://www.w3.org/2000/svg" xmlns:xlink="http://www.w3.org/1999/xlink" x="0px" y="0px"
	 viewBox="0 0 22 22" style="enable-background:new 0 0 22 22;" xml:space="preserve">
<style type="text/css">
	.st0{fill:#FFFFFF;}
</style>
<path class="st0" d="M11,0C4.93,0,0,4.93,0,11s4.93,11,11,11s11-4.93,11-11S17.07,0,11,0z M19.94,10h-3.99
	c-0.22-2.76-1.15-5.41-2.68-7.7C16.82,3.23,19.53,6.27,19.94,10z M8.05,12h5.89c-0.25,2.71-1.27,5.3-2.94,7.45
	C9.32,17.29,8.3,14.7,8.05,12z M8.06,10C8.31,7.29,9.33,4.7,11,2.55c1.68,2.16,2.7,4.75,2.95,7.45H8.06z M8.73,2.3
	C7.21,4.59,6.28,7.23,6.05,10H2.06C2.47,6.27,5.18,3.23,8.73,2.3z M2.06,12h3.99c0.22,2.76,1.15,5.41,2.68,7.7
	C5.18,18.77,2.47,15.73,2.06,12z M13.27,19.7c1.52-2.28,2.44-4.92,2.67-7.7h3.99C19.53,15.73,16.82,18.77,13.27,19.7z"/>
</svg>
