<?xml version="1.0" encoding="utf-8"?>
<!-- Generator: Adobe Illustrator 26.3.1, SVG Export Plug-In . SVG Version: 6.00 Build 0)  -->
<svg version="1.1" id="Layer_1" xmlns="http://www.w3.org/2000/svg" xmlns:xlink="http://www.w3.org/1999/xlink" x="0px" y="0px"
	 viewBox="0 0 22 22" style="enable-background:new 0 0 22 22;" xml:space="preserve">
<style type="text/css">
	.st0{fill:#FFFFFF;}
</style>
<path class="st0" d="M11,12c-0.15,0-0.31-0.04-0.45-0.11l-10-5C0.21,6.73,0,6.38,0,6s0.21-0.73,0.55-0.89l10-5
	c0.28-0.14,0.61-0.14,0.89,0l10,5C21.79,5.27,22,5.62,22,6s-0.21,0.73-0.55,0.89l-10,5C11.31,11.96,11.15,12,11,12z M3.24,6L11,9.88
	L18.76,6L11,2.12L3.24,6z"/>
<path class="st0" d="M11,22c-0.15,0-0.31-0.04-0.45-0.11l-10-5c-0.49-0.25-0.69-0.85-0.45-1.34c0.25-0.49,0.85-0.69,1.34-0.45
	L11,19.88l9.55-4.78c0.49-0.25,1.09-0.05,1.34,0.45c0.25,0.49,0.05,1.09-0.45,1.34l-10,5C11.31,21.96,11.15,22,11,22z"/>
<path class="st0" d="M11,17c-0.15,0-0.31-0.04-0.45-0.11l-10-5c-0.49-0.25-0.69-0.85-0.45-1.34c0.25-0.49,0.85-0.69,1.34-0.45
	L11,14.88l9.55-4.78c0.49-0.25,1.09-0.05,1.34,0.45c0.25,0.49,0.05,1.09-0.45,1.34l-10,5C11.31,16.96,11.15,17,11,17z"/>
</svg>
