<?xml version="1.0" encoding="utf-8"?>
<!-- Generator: Adobe Illustrator 26.3.1, SVG Export Plug-In . SVG Version: 6.00 Build 0)  -->
<svg version="1.1" id="Layer_1" xmlns="http://www.w3.org/2000/svg" xmlns:xlink="http://www.w3.org/1999/xlink" x="0px" y="0px"
	 viewBox="0 0 22 22" style="enable-background:new 0 0 22 22;" xml:space="preserve">
<style type="text/css">
	.st0{fill:#E21F26;}
</style>
<path class="st0" d="M11,22C4.93,22,0,17.07,0,11S4.93,0,11,0s11,4.93,11,11S17.07,22,11,22z M11,0.67C5.3,0.67,0.67,5.3,0.67,11
	S5.3,21.33,11,21.33S21.33,16.7,21.33,11S16.7,0.67,11,0.67z"/>
<path class="st0" d="M13.2,9.15c0.25-0.3,0.38-0.41,0.2-0.59c-0.18-0.18-0.7,0.24-1.35,0.7s-4.41,2.96-4.76,3.17
	s-0.85,0.37-1.15,0.32c-0.3-0.04-1.14-0.13-2.05-0.47s-1.46-0.46-1.4-0.83c0.06-0.38,0.22-0.47,1.21-0.9s6.62-2.86,7.91-3.39
	s3.33-1.36,4.03-1.54c0.7-0.18,1.12,0.03,1.15,0.52S16.9,7.4,16.81,7.9s-0.67,4.59-0.82,5.44c-0.14,0.85-0.33,2.38-0.67,3.41
	c-0.34,1.03-1.37,0.59-1.47,0.54c-0.1-0.05-4.18-2.74-4.47-2.96c-0.29-0.22-0.9-0.6-0.23-1.28S12.95,9.45,13.2,9.15z"/>
</svg>
