<?xml version="1.0" encoding="utf-8"?>
<!-- Generator: Adobe Illustrator 26.3.1, SVG Export Plug-In . SVG Version: 6.00 Build 0)  -->
<svg version="1.1" id="Layer_1" xmlns="http://www.w3.org/2000/svg" xmlns:xlink="http://www.w3.org/1999/xlink" x="0px" y="0px"
	 viewBox="0 0 22 22" style="enable-background:new 0 0 22 22;" xml:space="preserve">
<style type="text/css">
	.st0{fill:#FFFFFF;}
</style>
<path class="st0" d="M19,1H3C1.35,1,0,2.35,0,4v10c0,1.65,1.35,3,3,3h7v2H7c-0.55,0-1,0.45-1,1s0.45,1,1,1h8c0.55,0,1-0.45,1-1
	s-0.45-1-1-1h-3v-2h7c1.65,0,3-1.35,3-3V4C22,2.35,20.65,1,19,1z M20,14c0,0.55-0.45,1-1,1H3c-0.55,0-1-0.45-1-1V4
	c0-0.55,0.45-1,1-1h16c0.55,0,1,0.45,1,1V14z"/>
</svg>
