<?xml version="1.0" encoding="utf-8"?>
<!-- Generator: Adobe Illustrator 26.3.1, SVG Export Plug-In . SVG Version: 6.00 Build 0)  -->
<svg version="1.1" id="Layer_1" xmlns="http://www.w3.org/2000/svg" xmlns:xlink="http://www.w3.org/1999/xlink" x="0px" y="0px"
	 viewBox="0 0 100 100" style="enable-background:new 0 0 100 100;" xml:space="preserve">
<style type="text/css">
	.st0{fill:#E63946;}
</style>
<path class="st0" d="M50,96.5C24.4,96.5,3.5,75.6,3.5,50S24.4,3.5,50,3.5S96.5,24.4,96.5,50S75.6,96.5,50,96.5z M50,6.5
	C26,6.5,6.5,26,6.5,50S26,93.5,50,93.5S93.5,74,93.5,50S74,6.5,50,6.5z"/>
<path class="st0" d="M50,69c-14.3,0-26-8.5-26-19s11.7-19,26-19s26,8.5,26,19S64.3,69,50,69z M50,33c-13.2,0-24,7.6-24,17
	s10.8,17,24,17s24-7.6,24-17S63.2,33,50,33z"/>
<path class="st0" d="M50,40c-5.5,0-10,4.5-10,10s4.5,10,10,10s10-4.5,10-10S55.5,40,50,40z M53,50c-1.7,0-3-1.3-3-3s1.3-3,3-3
	s3,1.3,3,3S54.7,50,53,50z"/>
</svg>
